<svg width="19" height="17" viewBox="0 0 19 17" fill="none" xmlns="http://www.w3.org/2000/svg">
<path d="M13.0231 1.53519C13.9664 1.53791 14.8704 1.89998 15.5374 2.54234C16.2045 3.1847 16.5805 4.05515 16.5833 4.96357V11.8196C16.5805 12.728 16.2045 13.5985 15.5374 14.2408C14.8704 14.8832 13.9664 15.2453 13.0231 15.248H5.90336C4.95999 15.2453 4.05606 14.8832 3.389 14.2408C2.72194 13.5985 2.34593 12.728 2.34312 11.8196V4.96357C2.34593 4.05515 2.72194 3.1847 3.389 2.54234C4.05606 1.89998 4.95999 1.53791 5.90336 1.53519H13.0231ZM13.0231 0.164062H5.90336C3.16204 0.164063 0.91925 2.32379 0.91925 4.96357V11.8196C0.91925 14.4594 3.16204 16.6191 5.90336 16.6191H13.0231C15.7644 16.6191 18.0072 14.4594 18.0072 11.8196V4.96357C18.0072 2.32379 15.7644 0.164062 13.0231 0.164062Z" fill="white"/>
<path d="M14.0911 4.96313C13.8798 4.96313 13.6733 4.90281 13.4977 4.78981C13.3221 4.6768 13.1852 4.51618 13.1044 4.32826C13.0235 4.14033 13.0024 3.93355 13.0436 3.73405C13.0848 3.53455 13.1865 3.3513 13.3359 3.20747C13.4852 3.06364 13.6755 2.96569 13.8827 2.92601C14.0899 2.88633 14.3046 2.9067 14.4998 2.98454C14.6949 3.06238 14.8617 3.19419 14.9791 3.36332C15.0964 3.53245 15.1591 3.73128 15.1591 3.93469C15.1594 4.06983 15.1319 4.20369 15.0784 4.3286C15.0248 4.45351 14.9462 4.567 14.8469 4.66256C14.7477 4.75811 14.6298 4.83386 14.5001 4.88544C14.3704 4.93702 14.2314 4.96342 14.0911 4.96313ZM9.46321 5.64851C10.0265 5.64851 10.5772 5.80937 11.0455 6.11073C11.5139 6.41209 11.879 6.84043 12.0945 7.34158C12.3101 7.84273 12.3665 8.39419 12.2566 8.9262C12.1467 9.45822 11.8754 9.94691 11.4771 10.3305C11.0788 10.714 10.5713 10.9753 10.0188 11.0811C9.46637 11.1869 8.89371 11.1326 8.37328 10.925C7.85286 10.7174 7.40804 10.3659 7.09509 9.91487C6.78213 9.46384 6.61509 8.93358 6.61509 8.39114C6.6159 7.66399 6.91623 6.96685 7.45018 6.45267C7.98413 5.9385 8.70809 5.64929 9.46321 5.64851ZM9.46321 4.27738C8.61829 4.27738 7.79234 4.51865 7.08982 4.97068C6.3873 5.4227 5.83975 6.06518 5.51641 6.81688C5.19307 7.56857 5.10847 8.39571 5.27331 9.1937C5.43815 9.99169 5.84501 10.7247 6.44246 11.3C7.03991 11.8753 7.8011 12.2671 8.62978 12.4259C9.45847 12.5846 10.3174 12.5031 11.098 12.1918C11.8786 11.8804 12.5458 11.3531 13.0152 10.6766C13.4846 10.0001 13.7352 9.20477 13.7352 8.39114C13.7352 7.30011 13.2851 6.25376 12.484 5.48228C11.6828 4.7108 10.5962 4.27738 9.46321 4.27738Z" fill="white"/>
</svg>
